<svg xmlns="http://www.w3.org/2000/svg" width="33.439" height="26.891" viewBox="0 0 33.439 26.891">
    <defs>
        <style>
            .prefix__cls-2{fill:#002159}
        </style>
    </defs>
    <g id="prefix__Group_20948" data-name="Group 20948" transform="translate(-1 -5.7)">
        <path id="prefix__Path_46232" d="M35.71 13.363a5.81 5.81 0 0 0-5.782-5.155 5.465 5.465 0 0 0-2.438.557A6.176 6.176 0 0 0 22.055 5.7 6.3 6.3 0 0 0 16.9 8.417a7.748 7.748 0 0 1 5.782 3.274 7.89 7.89 0 0 1 2.508-.418 7.317 7.317 0 0 1 7.176 6.061 7.209 7.209 0 0 1 4.041 6.479 5.681 5.681 0 0 0 2.856-5.013 5.913 5.913 0 0 0-3.553-5.437z" data-name="Path 46232" transform="translate(-4.823)" style="fill:#8dc8e8"/>
        <path id="prefix__Path_46233" d="M24.878 23.7a2.53 2.53 0 0 0-1.811.766 2.573 2.573 0 0 0-.766 1.881 2.821 2.821 0 0 0 .766 1.881 2.524 2.524 0 0 0 3.623 0 2.573 2.573 0 0 0 .766-1.881 2.821 2.821 0 0 0-.766-1.881 2.19 2.19 0 0 0-1.812-.766z" class="prefix__cls-2" data-name="Path 46233" transform="translate(-6.461 -5.46)"/>
        <path id="prefix__Path_46234" d="M26.916 19.208a6.557 6.557 0 0 0-6.479-5.852 6.285 6.285 0 0 0-2.787.627 7.073 7.073 0 0 0-13.167 3.553v.627A7.77 7.77 0 0 0 1 24.642a7.611 7.611 0 0 0 7.594 7.594 6.867 6.867 0 0 0 2.647-.488 6.608 6.608 0 0 0 10.45-.557 6.935 6.935 0 0 0 2.647.557 6.531 6.531 0 0 0 2.578-12.54zM9.151 24.085a2.374 2.374 0 0 0 1.742.766 2.888 2.888 0 0 0 1.115-.209 3.675 3.675 0 0 0 .975-.7l.766.836a3.608 3.608 0 0 1-2.787 1.254 3.744 3.744 0 0 1-2.717-6.409 3.955 3.955 0 0 1 2.787-1.045 3.508 3.508 0 0 1 2.787 1.254l-.766.836a3.675 3.675 0 0 0-.975-.7 2.653 2.653 0 0 0-1.115-.209 2.467 2.467 0 0 0-1.811.7 2.415 2.415 0 0 0-.766 1.811 2.7 2.7 0 0 0 .765 1.815zm11.982.906a3.675 3.675 0 0 1-2.717 1.045A3.906 3.906 0 0 1 15.7 24.99a3.426 3.426 0 0 1-1.115-2.647A3.426 3.426 0 0 1 15.7 19.7a3.675 3.675 0 0 1 2.717-1.045 3.906 3.906 0 0 1 2.716 1.045 3.426 3.426 0 0 1 1.115 2.647 3.529 3.529 0 0 1-1.115 2.643zm3.832 4.389h-3v-.627l1.324-1.324c.279-.279.488-.557.627-.7a.753.753 0 0 0 .209-.488.5.5 0 0 0-.209-.418.632.632 0 0 0-.488-.209 1.186 1.186 0 0 0-.906.557l-.557-.348a2.66 2.66 0 0 1 .635-.623 1.743 1.743 0 0 1 .906-.209 1.665 1.665 0 0 1 .975.348 1.123 1.123 0 0 1 .418.906 2.034 2.034 0 0 1-.139.627 5.081 5.081 0 0 1-.627.766l-1.045 1.045h1.951v.7z" class="prefix__cls-2" data-name="Path 46234" transform="translate(0 -1.456)"/>
    </g>
</svg>
