<svg xmlns="http://www.w3.org/2000/svg" width="90" height="61" viewBox="0 0 90 61">
    <defs>
        <style>
            .prefix__cls-2{fill:#002159}
        </style>
    </defs>
    <g id="prefix__Downy-Logo" transform="translate(-1052 -553)">
        <path id="prefix__Logo-Bg" d="M0 0H90V61H0z" transform="translate(1052.001 553)" style="fill:transparent"/>
        <g id="prefix__Group_22281" data-name="Group 22281">
            <path id="prefix__Path_47502" d="M59.551 48.043c-4.729.019-8 3.526-7.979 9.339s3.264 9.239 8 9.218c4.7-.022 7.969-3.532 7.953-9.338s-3.27-9.24-7.974-9.219zm.049 16.923c-2.442.011-4.14-2.763-4.153-7.654s1.6-7.62 4.037-7.631 4.143 2.761 4.155 7.652-1.6 7.611-4.039 7.633zm43.879-1.2v-7.851c0-2.7-.884-5.685-3.546-5.685-2.2 0-3.735 3.05-3.735 5.751v8.3c0 2.6-3.8 2.183-3.8 2.183V48.7c3.213 0 3.8 2.413 3.8 2.413a5.674 5.674 0 0 1 5.176-2.728c3.734 0 5.9 2.3 5.9 6.35v9.035c0 2.265 1.293 2.922 1.293 2.922s-5.086.49-5.086-2.922zM90.79 59.437zm-.02-5.457l.021 5.457a7.334 7.334 0 0 1-1.763 4.873 6.489 6.489 0 0 1-1.09 1.041 5.92 5.92 0 0 1-3.579 1.189h-.006-.106A5.465 5.465 0 0 1 79.8 64.2a5.423 5.423 0 0 1-3.825 2.331 4.6 4.6 0 0 1-.692.046h-.012a6.014 6.014 0 0 1-5.07-2.741 8.557 8.557 0 0 1-1.414-4.655v-.205l-.037-5.583c0-4.431-1.385-5.11-1.385-5.11s5.22-.108 5.22 4.065l.038 7.021c.05 2.008.653 5.674 2.629 5.648 2.419-.033 2.59-3.659 2.626-5.666l-.036-7.212-.023-3.439h1.031a2.57 2.57 0 0 1 2.3 1.274 4.544 4.544 0 0 1 .518 2.343l.008 1.7.024 5.323c.052 2 .658 5.646 2.637 5.646 2.545 0 2.585-3.662 2.619-5.664l-.027-5.323-.021-2.799c0-2.386 3.852-2.509 3.852-2.509l.01 5.287zm23.193 21.12c-.038 0-8.488.168-9.7-7.783.316.292 1.475 1.119 4.025.918.44 1.628 1.863 5.4 5.55 5.4 3.409 0 5.216-2.5 5.216-5.779v-2.469a5.4 5.4 0 0 1-3.146.935 6.507 6.507 0 0 1-4.99-2.253 9.027 9.027 0 0 1-2.035-5.993l-.046-9.378s3.843-.157 3.843 2.413l.011 7.378c.055 2.394.623 6.179 3.2 6.179 2.964 0 3.126-4.769 3.146-6.2l-.039-7.356s.024-2.413 3.838-2.413l.069 17.511c-.005.14.617 8.89-8.942 8.89zm-75.1-32.734c-1.218 0-1.459.452-2.454.452-.65 0-1.019-.467-2.106-.467-.851 0-.687.36-.687.36.342.347.386 1.288.386 2.719 0 2.424.073 14.691.073 17.849 0 3.281 3.86 3.227 3.86 3.227a15.044 15.044 0 0 0 5.094-.714 10.628 10.628 0 0 0 3.864-2.4 11.815 11.815 0 0 0 3.652-9.014s1.289-12.016-11.684-12.016zm.611 22.08c-1.024.212-1.545-.1-1.545-1.132 0-.717-.053-18.824-.053-18.824s9.507-.48 8.752 9.862c-.517 7.143-4.579 9.497-7.156 10.091z" class="prefix__cls-2" data-name="Path 47502" transform="translate(1018.399 532.903)"/>
            <path id="prefix__Path_47503" d="M95.512 33.7a4.854 4.854 0 0 1-1.091-.03c-.292-.042-.086-.079-.016-.1a6.562 6.562 0 0 0 4.478-3.617 6.387 6.387 0 0 0-.671-5.921 4.987 4.987 0 0 0-3.741-1.659.519.519 0 0 1-.283-.081 5.355 5.355 0 0 0-1.572-.671c-.2-.085 0-.233.074-.285a6.418 6.418 0 0 1 4.077-1.218 5.915 5.915 0 0 1 5.482 4.071 7.6 7.6 0 0 1-6.737 9.511m-.888-7.734a.7.7 0 0 1-.886.376c-.571-.371-.071-1.553.762-1.587.033 0 .062 0 .094.006a1.643 1.643 0 0 1 .03 1.2m-1.557 7.32s-1.793-.416-3.087-3.245a5.227 5.227 0 0 1 .685-5.288c.2-.275.239-.178.193.074a4.323 4.323 0 0 0-.077.9c-.025 3.1 2.532 3.9 3.831 3.541 2.986-.811 2.235-5.434-.435-4.926a1.582 1.582 0 0 0-1.113 2.2 1.068 1.068 0 0 0 1.536.292 1.609 1.609 0 0 0 .576-1.264 2.113 2.113 0 0 0-.028-.414c.009-.305.357.183.357.183a1.961 1.961 0 0 1-2.081 3.1c-1.181-.314-1.7-1.916-1.662-2.922a2.292 2.292 0 0 1 2.2-2.314c1.25-.133 3.749.361 4.244 3.858s-3.212 5.8-4.422 6.094zm-1.173.318A10.039 10.039 0 0 1 90 33.144c-4.471-1.57-4.876-5.273-4.1-7.862 1.39-3.848 5.571-3.492 7.19-2.983.176.059.185.183.015.228-1.422.36-4.3 1.743-4.673 4.641-.555 4.307 3.06 6.023 3.45 6.334a.067.067 0 0 1 .006.1m11.444-10.117a6.358 6.358 0 0 0-6.008-4.1 9.1 9.1 0 0 0-5.729 1.98 8.088 8.088 0 0 0-4.839 1.1 6.22 6.22 0 0 0-2.373 5.855c.954 6.55 9.092 5.641 9.16 5.654 6.221 1.233 11.954-3.974 9.788-10.495" class="prefix__cls-2" data-name="Path 47503" transform="translate(1003.586 539.607)"/>
        </g>
    </g>
</svg>
