<svg xmlns="http://www.w3.org/2000/svg" width="35.245" height="33" viewBox="0 0 35.245 33">
    <defs>
        <style>
            .prefix__cls-2{fill:#74849f}
        </style>
    </defs>
    <g id="prefix__Group_22836" data-name="Group 22836" transform="translate(-8.91 -9)">
        <path id="prefix__Subtraction_3" fill="#73849f" d="M17.62 33a18.911 18.911 0 0 1-3.547-.334 18.413 18.413 0 0 1-3.3-.96 18.031 18.031 0 0 1-2.991-1.519 17.544 17.544 0 0 1-2.607-2.012 16.912 16.912 0 0 1-2.152-2.439 16.21 16.21 0 0 1-1.626-2.8A15.573 15.573 0 0 1 1.376 10.1 16.189 16.189 0 0 1 3 7.291a16.929 16.929 0 0 1 2.145-2.444A17.575 17.575 0 0 1 7.75 2.829 18.036 18.036 0 0 1 10.742 1.3a18.4 18.4 0 0 1 3.306-.961A18.908 18.908 0 0 1 17.6 0h.025a18.915 18.915 0 0 1 3.548.335 18.413 18.413 0 0 1 3.305.96 18.03 18.03 0 0 1 2.992 1.519 17.543 17.543 0 0 1 2.607 2.012 16.911 16.911 0 0 1 2.152 2.439 16.21 16.21 0 0 1 1.626 2.8 15.57 15.57 0 0 1 .015 12.84 16.213 16.213 0 0 1-1.621 2.8 16.908 16.908 0 0 1-2.149 2.448 17.565 17.565 0 0 1-2.605 2.018A18.027 18.027 0 0 1 24.5 31.7a18.413 18.413 0 0 1-3.306.965 18.92 18.92 0 0 1-3.55.335zM17.609.477a15.947 15.947 0 0 0-7.365 1.8 16.142 16.142 0 0 0-2.716 1.78 15.933 15.933 0 0 0-3.974 4.778 16.067 16.067 0 0 0-1.906 8.929 15.944 15.944 0 0 0 .557 3.1 16.139 16.139 0 0 0 3.811 6.684 16.027 16.027 0 0 0 15.351 4.532 16.163 16.163 0 0 0 6.351-3.137 15.929 15.929 0 0 0 3.974-4.778 16.061 16.061 0 0 0 1.905-8.93 15.94 15.94 0 0 0-.557-3.1 16.146 16.146 0 0 0-3.81-6.683A16.047 16.047 0 0 0 17.609.477z" data-name="Subtraction 3" transform="translate(8.91 8.999)"/>
        <g id="prefix__Group_22833" data-name="Group 22833" transform="translate(13.473 18.975)">
            <g id="prefix__Group_22832" data-name="Group 22832">
                <g id="prefix__Group_22830" data-name="Group 22830" transform="translate(10.878 1.492)">
                    <g id="prefix__Group_22829" data-name="Group 22829">
                        <g id="prefix__Group_22828" data-name="Group 22828">
                            <path id="prefix__Path_47899" d="M99.676 80.247zm-7.736-9.586z" class="prefix__cls-2" data-name="Path 47899" transform="translate(-91.94 -70.661)"/>
                        </g>
                    </g>
                </g>
                <g id="prefix__Group_22831" data-name="Group 22831">
                    <path id="prefix__Path_47900" d="M56.47 91.275c.427-.012.006 1.38-1.58 2.005.348-.9 1.048-1.991 1.58-2.005m.073-.474a3.49 3.49 0 0 0-2.934 2.754c-.277 1.059-.018 1.967 1.186 1.934a2.939 2.939 0 0 0 2.012-.9c.146-.145.285-.552-.086-.283a2.141 2.141 0 0 1-1.3.519c-.632.02-.821-.441-.668-1.114 3.108-.866 3.222-2.909 1.82-2.909h-.029" class="prefix__cls-2" data-name="Path 47900" transform="translate(-49.777 -85.564)"/>
                    <path id="prefix__Path_47901" d="M102.207 88.008a3.174 3.174 0 0 0-2 1.259 1.189 1.189 0 0 0-.944-1.029c-.21-.035-.243.061-.171.26a2.924 2.924 0 0 1-.028 1.4 29.209 29.209 0 0 1-.856 2.844c-.029.084-.05.253.152.253a1.438 1.438 0 0 0 1.158-.9c.3-.842.251-.741.469-1.387a2.535 2.535 0 0 1 1.748-1.87.912.912 0 0 0 .672-.435c.268-.4.288-.515-.179-.394a.128.128 0 0 1-.021 0" class="prefix__cls-2" data-name="Path 47901" transform="translate(-86.148 -83.253)"/>
                    <path id="prefix__Path_47902" d="M76.726 79.576c.624-1.685 1.148-2 1.452-2.015.532-.015.31 1.181-.015 1.915-.355.815-.836 1.632-1.383 1.648a.04.04 0 0 1-.014 0c-.3 0-.424-.354-.04-1.549m.4-5.625c-.243.008-.16.31-.173.47a22.657 22.657 0 0 1-.73 3.127c-.178.657-.5 1.633-.636 2.1-.592 1.98.573 1.988.992 1.972a3.023 3.023 0 0 0 2.684-1.981c1.221-2.613-.829-3.123-1.89-2.119a21.832 21.832 0 0 0 .6-2.238 1.315 1.315 0 0 0-.168-1.106 1.073 1.073 0 0 0-.661-.226h-.018" class="prefix__cls-2" data-name="Path 47902" transform="translate(-67.619 -71.848)"/>
                    <path id="prefix__Path_47903" d="M118.779 89.7c.427-.012.022 1.38-1.564 2.005.347-.9 1.031-1.991 1.564-2.005m.071-.474a3.476 3.476 0 0 0-2.917 2.754c-.277 1.062.022 1.965 1.136 1.935a3.149 3.149 0 0 0 2.2-1.065c.136-.15.218-.58-.118-.269a2.248 2.248 0 0 1-1.41.668c-.633.02-.821-.441-.668-1.115 3.108-.863 3.2-2.908 1.8-2.908h-.031" class="prefix__cls-2" data-name="Path 47903" transform="translate(-100.514 -84.279)"/>
                    <path id="prefix__Path_47904" d="M159.538 89.044c.428-.013.023 1.38-1.564 2.006.349-.9 1.033-1.991 1.564-2.006m.073-.474a3.469 3.469 0 0 0-2.916 2.756c-.277 1.06.021 1.962 1.135 1.933a3.164 3.164 0 0 0 2.2-1.063c.136-.151.218-.58-.121-.271a2.248 2.248 0 0 1-1.409.668c-.632.02-.82-.441-.668-1.113 3.108-.865 3.2-2.91 1.8-2.91h-.029" class="prefix__cls-2" data-name="Path 47904" transform="translate(-133.695 -83.747)"/>
                    <path id="prefix__Union_7" d="M.049 11.513c.966-1.2 1.383-2.384 1.888-5.49.03-.163.06-.33.091-.492l-.2-.017C1.418 5.478.7 5.348.542 4.938.459 4.73.384 4.6.664 4.656a11.961 11.961 0 0 0 1.509.1c.031-.161.057-.3.077-.394C3.155.832 5.108-.1 7.315.008a2.511 2.511 0 0 1 1.924.755c.072.1-.019.3-.169.211A3.072 3.072 0 0 0 7.314.547c-1.392 0-2.784.883-3.475 3.06h-.008s-.034.1-.091.338-.12.49-.167.759l.141-.015a7.367 7.367 0 0 0 2.115-.442c.194-.106.265.071.124.211a4.812 4.812 0 0 1-2.512 1.016 21.512 21.512 0 0 1-1.108 4.41 2.812 2.812 0 0 1-1.8 1.874.8.8 0 0 1-.23.035c-.229 0-.388-.114-.254-.28z" class="prefix__cls-2" data-name="Union 7"/>
                    <path id="prefix__Path_47907" d="M137.361 88.817a11.687 11.687 0 0 1-2.136.244c-.227-.007-.29.063-.2.226.1.2.283.214.574.242a5.834 5.834 0 0 0 1.086-.07c.335-.038.138.255.048.366-.676.819-2.5 2.42-3.063 3.542a.62.62 0 0 0 .128.82 1.125 1.125 0 0 0 1.137.3 12.224 12.224 0 0 1 3.538-.309c.291.01.06-.316-.125-.35a9.079 9.079 0 0 0-2.947-.1c-.5.07-.466-.295-.368-.451.473-.753 2.267-2.559 2.927-3.439.285-.384.44-.8.181-1.017-.147-.121-.524-.052-.778-.009" class="prefix__cls-2" data-name="Path 47907" transform="translate(-114.947 -83.901)"/>
                    <path id="prefix__Path_47908" d="M94.712 69.819a.128.128 0 0 1 .068-.029.136.136 0 0 1 .093.028 2.231 2.231 0 0 0 .709.373 2.993 2.993 0 0 0 .763.143 3.537 3.537 0 0 0 .511-.014 9.556 9.556 0 0 0 2.512-.76 9.778 9.778 0 0 1 2.6-.779 3.794 3.794 0 0 1 .555-.016h.144a4.023 4.023 0 0 1 2.373.87 3.938 3.938 0 0 1 1.148 1.512.188.188 0 0 1 .012.042.143.143 0 0 1-.056.127.141.141 0 0 1-.062.025.131.131 0 0 1-.1-.04 3.32 3.32 0 0 0-1.324-.757 5.467 5.467 0 0 0-1.724-.28c-.173 0-.343.01-.513.026a12.15 12.15 0 0 0-2.192.5 12.382 12.382 0 0 1-2.266.506 5.823 5.823 0 0 1-.69.028 3.583 3.583 0 0 1-1.7-.426 2.074 2.074 0 0 1-.895-.912.137.137 0 0 1-.012-.046.145.145 0 0 1 .046-.121z" class="prefix__cls-2" data-name="Path 47908" transform="translate(-83.279 -67.623)"/>
                </g>
            </g>
        </g>
    </g>
</svg>
