<svg xmlns="http://www.w3.org/2000/svg" id="prefix__Gain" width="39.147" height="33" viewBox="0 0 39.147 33">
    <defs>
        <style>
            .prefix__cls-2{fill:#73849f}
        </style>
    </defs>
    <g id="prefix__Group_21502" data-name="Group 21502">
        <g id="prefix__Group_21501" data-name="Group 21501">
            <g id="prefix__Group_21500" data-name="Group 21500">
                <g id="prefix__Group_21491" data-name="Group 21491" transform="translate(6.398)">
                    <g id="prefix__Group_21490" data-name="Group 21490" style="opacity:.9">
                        <path id="prefix__Path_47343" d="M352.245 224.858a.086.086 0 0 1-.09.073l-13.23-1.26 12.338 4.939a.083.083 0 0 1-.059.156l-12.544-4.394 10.787 7.766a.083.083 0 0 1-.094.137l-11.118-7.281-.572.51-.673.355-.725.181h-.763l-.741-.183-.663-.345-9.012 9.769a.083.083 0 0 1-.125-.11l8.565-10.161-11.08 7.337a.083.083 0 0 1-.095-.137l10.739-7.83-12.511 4.483a.083.083 0 0 1-.06-.155l12.3-5.032-13.219 1.348a.083.083 0 0 1-.02-.165l13.15-1.921-13.159-1.864a.083.083 0 0 1-.071-.092.082.082 0 0 1 .091-.073l13.23 1.26-12.341-4.939a.083.083 0 0 1 .059-.156l12.544 4.394L322.3 213.7a.083.083 0 0 1 .094-.137l11.118 7.28-8.613-10.121a.083.083 0 0 1 .124-.111l9.061 9.722-5.955-11.88a.083.083 0 0 1 .147-.078l6.482 11.6-2.938-12.962a.083.083 0 0 1 .161-.04l3.5 12.822.269-13.289a.083.083 0 0 1 .166 0l.327 13.285 3.42-12.841a.083.083 0 0 1 .162.039l-2.841 12.984 6.4-11.65a.083.083 0 0 1 .148.077l-5.883 11.918 9.012-9.769a.083.083 0 0 1 .125.11l-8.565 10.161 11.08-7.337a.083.083 0 0 1 .1.137l-10.739 7.83 12.511-4.483a.083.083 0 0 1 .06.155l-12.3 5.032 13.224-1.344a.083.083 0 0 1 .02.165l-13.15 1.921 13.159 1.864a.083.083 0 0 1 .059.098z" class="prefix__cls-2" data-name="Path 47343" transform="translate(-319.497 -206.431)"/>
                    </g>
                </g>
                <g id="prefix__Group_21499" data-name="Group 21499" transform="translate(0 13.65)">
                    <g id="prefix__Group_21498" data-name="Group 21498">
                        <g id="prefix__Group_21497" data-name="Group 21497">
                            <g id="prefix__Group_21496" data-name="Group 21496">
                                <path id="prefix__Path_47346" d="M315.319 288.415a3.238 3.238 0 0 0-2.473-1.006 5.086 5.086 0 0 0-.606.038 4.908 4.908 0 0 0-2.075.755 4.309 4.309 0 0 0-1.61-.262 8.07 8.07 0 0 0-.858.049.24.24 0 0 0-.005-.041 2.6 2.6 0 0 0-2.613-1.964 3.06 3.06 0 0 0-.658.071 2.683 2.683 0 0 0-2.173 3.094 2.561 2.561 0 0 0 .146.448 6.9 6.9 0 0 0-1.7-.21 6 6 0 0 0-1.509.183 7.624 7.624 0 0 0-4.17 2.71c.16-.263.327-.539.478-.781.309-.5.577-.94.684-1.124l.556-.935-.983-.469a8.518 8.518 0 0 0-3.515-.737 7.7 7.7 0 0 0-.908.052 10.536 10.536 0 0 0-5.829 2.752 10.379 10.379 0 0 0-3.269 7.022 7.256 7.256 0 0 0 1.676 5.542 5.541 5.541 0 0 0 4.172 1.733c.135 0 .274 0 .411-.013a10.957 10.957 0 0 0 5.07-1.967l.443-.344.161-1.633a2.883 2.883 0 0 0 2.056.819 3.8 3.8 0 0 0 1.185-.2 4.49 4.49 0 0 0 1.9-1.333 2.675 2.675 0 0 0 1.089.2c1.027 0 2.458-.479 5.74-1.038s6.5-.607 7.842-1.115a2.512 2.512 0 0 0 1.7-2.2c.169-1.575.452-5.022.468-5.215a3.616 3.616 0 0 0-.823-2.881z" class="prefix__cls-2" data-name="Path 47346" transform="translate(-282.208 -285.985)"/>
                                <path id="prefix__Path_47347" d="M315.319 288.415a3.238 3.238 0 0 0-2.473-1.006 5.086 5.086 0 0 0-.606.038 4.908 4.908 0 0 0-2.075.755 4.309 4.309 0 0 0-1.61-.262 8.07 8.07 0 0 0-.858.049.24.24 0 0 0-.005-.041 2.6 2.6 0 0 0-2.613-1.964 3.06 3.06 0 0 0-.658.071 2.683 2.683 0 0 0-2.173 3.094 2.561 2.561 0 0 0 .146.448 6.9 6.9 0 0 0-1.7-.21 6 6 0 0 0-1.509.183 7.624 7.624 0 0 0-4.17 2.71c.16-.263.327-.539.478-.781.309-.5.577-.94.684-1.124l.556-.935-.983-.469a8.518 8.518 0 0 0-3.515-.737 7.7 7.7 0 0 0-.908.052 10.536 10.536 0 0 0-5.829 2.752 10.379 10.379 0 0 0-3.269 7.022 7.256 7.256 0 0 0 1.676 5.542 5.541 5.541 0 0 0 4.172 1.733c.135 0 .274 0 .411-.013a10.957 10.957 0 0 0 5.07-1.967l.443-.344.161-1.633a2.883 2.883 0 0 0 2.056.819 3.8 3.8 0 0 0 1.185-.2 4.49 4.49 0 0 0 1.9-1.333 2.675 2.675 0 0 0 1.089.2c1.027 0 2.458-.479 5.74-1.038s6.5-.607 7.842-1.115a2.512 2.512 0 0 0 1.7-2.2c.169-1.575.452-5.022.468-5.215a3.616 3.616 0 0 0-.823-2.881z" class="prefix__cls-2" data-name="Path 47347" transform="translate(-282.208 -285.985)"/>
                            </g>
                            <path id="prefix__Path_47348" d="M307.568 295.573l-.853 8.875c-.988.25-2.652.572-2.652-.633a4.166 4.166 0 0 1-2.153 2.051 2.1 2.1 0 0 1-2.93-1.934c-.311-2.759.729-7.394 5.272-8.58a5.666 5.666 0 0 1 3.316.221zm-3.108 2.018c-1.92.384-2.425 3.589-2.306 4.643.074.65.217 1.158.822.958.549-.18.967-1.046 1.134-2.752zm-9.5 5.985l-.2 2.041c-1.8.776-3.315-.244-2.926-3.285a5.662 5.662 0 0 1 4.29-4.755 5.841 5.841 0 0 1 2.2.094c.191-.344 1.548-2.536 1.814-2.989a7.714 7.714 0 0 0-3.877-.591 9.445 9.445 0 0 0-8.218 8.853c-.265 3.838 1.858 6.392 5.2 6.2a10.02 10.02 0 0 0 4.515-1.757l.105-.082.745-7.559s-4.084.728-4.555.81c-.216 1.396-.353 3.166.909 3.02zm15.364-7.7a3.177 3.177 0 0 1-.658.071 2.99 2.99 0 0 1-1.276-.265l-.829 8.592 3.014-.568.736-8.238a3.052 3.052 0 0 1-.985.404zm6.858-2.619a4.153 4.153 0 0 0-2.155.959c-.689-.69-2.5-.407-2.772-.374l-.875 9.743 3-.393.572-6.379a1.142 1.142 0 0 1 .983-1.04.7.7 0 0 1 .812.832s-.488 5.461-.574 6.409c1.52-.151 3.155-.257 3.319-1.787.172-1.593.468-5.2.468-5.2.188-2.034-1.051-2.998-2.776-2.773zm-7.065 1.628a1.57 1.57 0 1 0-2.081-1.132 1.687 1.687 0 0 0 2.082 1.129z" data-name="Path 47348" transform="translate(-287.022 -290.8)" style="fill:#13294b"/>
                        </g>
                    </g>
                </g>
            </g>
        </g>
    </g>
    <path id="prefix__Path_47349" d="M481.409 297.851a.448.448 0 1 1 .438-.449.431.431 0 0 1-.438.449zm0-.82a.348.348 0 0 0-.345.37.343.343 0 0 0 .345.371.372.372 0 0 0 0-.741zm-.088.629h-.083v-.5h.189c.119 0 .181.041.181.143a.127.127 0 0 1-.13.134l.137.22h-.092l-.128-.213h-.076zm.091-.283c.062 0 .113 0 .113-.077s-.057-.068-.106-.068h-.1v.146z" data-name="Path 47349" transform="translate(-446.865 -281.422)" style="fill:#161514;opacity:.7;mix-blend-mode:multiply;isolation:isolate"/>
</svg>
