<svg xmlns="http://www.w3.org/2000/svg" id="prefix__Instagram" width="40" height="40" viewBox="0 0 40 40">
    <g id="prefix__Oval" style="stroke:#8dc8e8;stroke-miterlimit:10;fill:none">
        <circle cx="20" cy="20" r="20" style="stroke:none"/>
        <circle cx="20" cy="20" r="19.5" style="fill:none"/>
    </g>
    <path id="prefix__Instagram-2" d="M12.242 17.436H5.194A5.2 5.2 0 0 1 0 12.242V5.194A5.2 5.2 0 0 1 5.194 0h7.048a5.2 5.2 0 0 1 5.194 5.194v7.048a5.2 5.2 0 0 1-5.194 5.194zM5.194 1.754a3.444 3.444 0 0 0-3.44 3.44v7.048a3.444 3.444 0 0 0 3.44 3.44h7.048a3.444 3.444 0 0 0 3.44-3.44V5.194a3.444 3.444 0 0 0-3.44-3.44zm3.524 11.473a4.509 4.509 0 1 1 4.51-4.509 4.515 4.515 0 0 1-4.51 4.509zm0-7.265a2.755 2.755 0 1 0 2.755 2.755 2.759 2.759 0 0 0-2.755-2.754zm4.518-.64a1.081 1.081 0 1 1 1.081-1.08 1.082 1.082 0 0 1-1.081 1.081z" data-name="Instagram" transform="translate(11.282 11.282)" style="fill:#8dc8e8"/>
</svg>
