<svg xmlns="http://www.w3.org/2000/svg" width="33.439" height="33.416" viewBox="0 0 33.439 33.416">
    <defs>
        <style>
            .prefix__cls-2{fill:#8dc8e8}
        </style>
    </defs>
    <g id="prefix__Group_20949" data-name="Group 20949" transform="translate(-537.98 -277.703)">
        <path id="prefix__Path_46235" d="M566.78 294.422l4.259-4.259a1.245 1.245 0 0 0-1.76-1.76l-4.259 4.259-3.38-3.379 4.259-4.259a1.246 1.246 0 0 0-1.764-1.76l-4.289 4.224-3.38-3.378 4.294-4.259a1.245 1.245 0 0 0-1.76-1.76l-4.294 4.259-4.259-4.295a1.245 1.245 0 0 0-1.76 1.76l4.259 4.295-3.378 3.378-4.295-4.259a1.245 1.245 0 0 0-1.76 1.76l4.259 4.259-3.378 3.414-4.26-4.293a1.245 1.245 0 0 0-1.817 1.7l.024.025.032.032 4.259 4.293-4.294 4.259a1.245 1.245 0 0 0 1.76 1.76l4.295-4.259 3.379 3.379-4.26 4.289a1.245 1.245 0 0 0 1.76 1.76l4.259-4.259 3.38 3.38-4.259 4.259a1.245 1.245 0 0 0 1.76 1.76l4.293-4.259 4.259 4.259a1.245 1.245 0 0 0 1.792-1.728l-.032-.032-4.259-4.255 3.38-3.379 4.259 4.259a1.246 1.246 0 0 0 1.76-1.764l-4.224-4.293 3.38-3.38 4.259 4.259a1.245 1.245 0 1 0 1.792-1.728l-.032-.032zm-12.074-8.554l3.379 3.379-3.379 3.413-3.379-3.378zm-8.552 8.552l3.379-3.379 3.414 3.379-3.38 3.379zm8.554 8.554l-3.381-3.379 3.379-3.414 3.379 3.38zm5.14-5.174l-3.381-3.379 3.38-3.379 3.379 3.379z" data-name="Path 46235" style="fill:#002159"/>
        <path id="prefix__Path_46235-2" d="M592.728 294.428l-1.76-1.76-3.38-3.38-1.795-1.795-3.379-3.378-1.76-1.76-4.254-4.295a1.245 1.245 0 0 0-1.76 1.76l4.259 4.295 12.074 12.069 4.259 4.259a1.245 1.245 0 0 0 1.792-1.728l-.032-.032z" class="prefix__cls-2" data-name="Path 46235-2" transform="translate(-25.948 -.004)"/>
        <path id="prefix__Path_46235-2-2" d="M574.637 312.519l-1.76-1.76-3.379-3.38-1.795-1.795-3.38-3.378-1.76-1.76-4.259-4.295a1.245 1.245 0 0 0-1.76 1.76l4.259 4.295 12.074 12.069 4.259 4.259a1.245 1.245 0 0 0 1.792-1.728l-.032-.032z" class="prefix__cls-2" data-name="Path 46235-2" transform="translate(-13.017 -12.935)"/>
    </g>
</svg>
