<svg xmlns="http://www.w3.org/2000/svg" width="197.991" height="34.249" viewBox="0 0 197.991 34.249">
    <defs>
        <style>
            .prefix__cls-1{fill:#d3def2;opacity:.5}
        </style>
    </defs>
    <g id="prefix__Group_22826" data-name="Group 22826" transform="translate(-100.5 -548.114)">
        <rect id="prefix__Rectangle_5428" width="60.06" height="2.002" class="prefix__cls-1" data-name="Rectangle 5428" rx="1.001" transform="translate(238.431 567.971)"/>
        <rect id="prefix__Rectangle_5429" width="59.059" height="2.002" class="prefix__cls-1" data-name="Rectangle 5429" rx="1.001" transform="translate(100.5 567.971)"/>
        <path id="prefix__Path_47896" fill="#d3def2" d="M110.261 52.568a11.251 11.251 0 0 1-2.529-.069c-.676-.1-.2-.182-.038-.226 3.335-.908 8.206-3.182 10.38-8.384 1.953-4.666.88-10.687-1.556-13.726-2.2-2.749-5.188-3.5-8.672-3.845a1.2 1.2 0 0 1-.656-.189 12.413 12.413 0 0 0-3.645-1.556c-.473-.2 0-.54.172-.661a14.878 14.878 0 0 1 9.451-2.823c5.532.358 10.716 3.361 12.709 9.438 3.144 11.255-5.532 21.167-15.617 22.042m-2.06-17.93a1.614 1.614 0 0 1-2.055.871c-1.323-.86-.164-3.6 1.767-3.679.076 0 .143 0 .218.015a3.809 3.809 0 0 1 .069 2.793m-3.609 16.967s-4.155-.965-7.155-7.521a12.116 12.116 0 0 1 1.587-12.257c.471-.637.555-.414.446.172a10.023 10.023 0 0 0-.179 2.084c-.057 7.186 5.869 9.029 8.882 8.209 6.922-1.879 5.181-12.6-1.008-11.419-2.985.569-3.358 4.091-2.58 5.094a2.475 2.475 0 0 0 3.561.678 3.73 3.73 0 0 0 1.336-2.931 4.9 4.9 0 0 0-.064-.96c.021-.707.827.425.827.425 2.591 4.027-.775 8.258-4.825 7.177-2.737-.729-3.94-4.441-3.852-6.774a5.312 5.312 0 0 1 5.092-5.363c2.9-.309 8.691.837 9.838 8.942s-7.446 13.437-10.25 14.127zm-2.719.737a23.271 23.271 0 0 1-4.381-1.073C87.126 47.63 86.186 39.047 88 33.045c3.223-8.919 12.914-8.1 16.667-6.914.409.138.428.423.034.528-3.3.835-9.965 4.04-10.833 10.759-1.287 9.984 7.094 13.961 8 14.683a.154.154 0 0 1 .013.241m26.519-23.45a14.739 14.739 0 0 0-13.926-9.5 21.086 21.086 0 0 0-13.28 4.59c-.245.079-6.6-.739-11.217 2.555a14.418 14.418 0 0 0-5.5 13.574C86.69 55.3 105.556 53.188 105.713 53.22c14.42 2.859 27.71-9.213 22.69-24.328" data-name="Path 47896" transform="translate(92.082 528.722)"/>
    </g>
</svg>
