<svg xmlns="http://www.w3.org/2000/svg" width="20" height="20" viewBox="0 0 20 20">
    <g id="prefix__SavedItems" transform="translate(-85 -743)">
        <path id="prefix__Rectangle_6468" d="M0 0H20V20H0z" data-name="Rectangle 6468" transform="translate(85 743)" style="fill:transparent"/>
        <g id="prefix__Path_47355" data-name="Path 47355" style="fill:none;stroke-miterlimit:10">
            <path d="M829.985 234.7a5.542 5.542 0 0 0-10-3.242 5.542 5.542 0 0 0-10 3.242 5.447 5.447 0 0 0 1.562 3.818l7.891 8.4a.745.745 0 0 0 1.187 0l8.139-8.777a5.438 5.438 0 0 0 1.221-3.441z" style="stroke:none" transform="translate(-724.985 514.79)"/>
            <path d="M815.523 230.61c-2.282 0-4.138 1.835-4.138 4.091 0 1.063.413 2.071 1.163 2.84l.01.01.009.009 7.46 7.94 7.673-8.275c.58-.728.885-1.6.885-2.524 0-2.256-1.856-4.091-4.138-4.091-1.329 0-2.546.613-3.337 1.682l-1.126 1.52-1.125-1.52c-.79-1.069-2.007-1.682-3.336-1.682m0-1.4c1.833 0 3.454.888 4.462 2.25 1.008-1.362 2.629-2.25 4.462-2.25 3.059 0 5.538 2.458 5.538 5.491 0 1.3-.458 2.494-1.22 3.434l-.002.003-8.139 8.777c-.149.197-.371.295-.594.295-.222 0-.444-.098-.593-.294l-7.89-8.397c-.966-.99-1.562-2.334-1.562-3.818 0-3.033 2.48-5.491 5.538-5.491z" style="fill:#555;stroke:none" transform="translate(-724.985 514.79)"/>
        </g>
    </g>
</svg>
