<svg xmlns="http://www.w3.org/2000/svg" width="20.3" height="20.3" viewBox="0 0 20.3 20.3">
    <path id="prefix__Offers" d="M747.527 41.564a3.413 3.413 0 0 0-2.251-3.21 3.413 3.413 0 0 0-4.539-4.538 3.414 3.414 0 0 0-6.42 0 3.432 3.432 0 0 0-1.449-.322 3.413 3.413 0 0 0-3.09 4.86 3.414 3.414 0 0 0 0 6.42 3.413 3.413 0 0 0 4.539 4.538 3.414 3.414 0 0 0 6.42 0 3.432 3.432 0 0 0 1.449.322 3.413 3.413 0 0 0 3.09-4.86 3.413 3.413 0 0 0 2.251-3.21zm-3.137 2.346a.525.525 0 0 0-.351.847 2.362 2.362 0 0 1-1.852 3.826 2.37 2.37 0 0 1-1.465-.508.525.525 0 0 0-.848.352 2.362 2.362 0 0 1-4.692 0 .525.525 0 0 0-.848-.352 2.37 2.37 0 0 1-1.465.508 2.361 2.361 0 0 1-1.852-3.826.525.525 0 0 0-.351-.847 2.362 2.362 0 0 1 0-4.692.525.525 0 0 0 .351-.848 2.362 2.362 0 0 1 3.318-3.318.525.525 0 0 0 .848-.351 2.362 2.362 0 0 1 4.692 0 .525.525 0 0 0 .848.351 2.369 2.369 0 0 1 1.465-.508 2.361 2.361 0 0 1 1.852 3.826.525.525 0 0 0 .351.848 2.362 2.362 0 0 1 0 4.692zm-4.181-6.128l-6.146 6.863a.525.525 0 1 0 .782.7l6.146-6.863a.525.525 0 0 0-.782-.7zm-4.419 2.889a1.838 1.838 0 1 0-1.376-.293 1.826 1.826 0 0 0 1.376.293zm3.475 1.786a1.839 1.839 0 1 0 1.376.294 1.827 1.827 0 0 0-1.376-.294z" transform="translate(-727.377 -31.414)" style="fill:#555;stroke:#555;stroke-width:.3px"/>
</svg>
