<svg xmlns="http://www.w3.org/2000/svg" width="99" height="33" viewBox="0 0 99 33">
    <defs>
        <radialGradient id="prefix__radial-gradient" cx=".3" cy=".077" r="1.549" gradientTransform="matrix(2.077 0 0 -1 25.407 15.727)" gradientUnits="objectBoundingBox">
            <stop offset=".021" stop-color="#fff"/>
            <stop offset=".025" stop-color="#fbfeff"/>
            <stop offset=".087" stop-color="#bae7f9"/>
            <stop offset=".144" stop-color="#87d5f4"/>
            <stop offset=".193" stop-color="#63c9f1"/>
            <stop offset=".232" stop-color="#4cc1ef"/>
            <stop offset=".257" stop-color="#44beee"/>
            <stop offset=".282" stop-color="#37b8eb"/>
            <stop offset=".349" stop-color="#19ace5"/>
            <stop offset=".407" stop-color="#07a4e0"/>
            <stop offset=".448" stop-color="#00a1df"/>
            <stop offset=".785" stop-color="#0045ab"/>
            <stop offset=".815" stop-color="#003da6"/>
            <stop offset=".956" stop-color="#0059b6"/>
        </radialGradient>
        <style>
            .prefix__cls-4{fill:#73849f}.prefix__cls-6{fill:#13294b;fill-rule:evenodd}
        </style>
    </defs>
    <g id="prefix__P_G-good-everyday" data-name="P&amp;G-good-everyday" transform="translate(-.969 .708)" style="isolation:isolate">
        <path id="prefix__Rectangle_7029" fill="rgba(255,255,255,0)" d="M0 0H99V33H0z" data-name="Rectangle 7029" transform="translate(.969 -.708)"/>
        <g id="prefix__Group_22483" data-name="Group 22483" transform="translate(.969 .292)">
            <g id="prefix__Group_22482" data-name="Group 22482">
                <g id="prefix__Group_22481" data-name="Group 22481">
                    <g id="prefix__Group_22480" data-name="Group 22480">
                        <g id="prefix__Group_22479" data-name="Group 22479">
                            <g id="prefix__Group_22478" data-name="Group 22478">
                                <g id="prefix__Group_22475" data-name="Group 22475" transform="translate(0 1.181)">
                                    <g id="prefix__Group_22473" data-name="Group 22473">
                                        <path id="prefix__Path_47712" fill="url(#prefix__radial-gradient)" d="M4.736 16.584A15.119 15.119 0 0 1 14.6 2.4h.006a14.2 14.2 0 0 0 .024 28.381h-.006a15.151 15.151 0 0 1-9.888-14.197z" data-name="Path 47712" transform="translate(-.969 -2.391)"/>
                                        <path id="prefix__Path_47713" d="M18.062 2.381c-.188 0-.369.006-.557.012H17.5a15.127 15.127 0 0 0 .024 28.374h.006c.175.006.351.012.533.012a14.2 14.2 0 0 0 0-28.4z" class="prefix__cls-4" data-name="Path 47713" transform="translate(-3.866 -2.381)"/>
                                        <path id="prefix__Path_47714" fill="#7b8ca7" d="M4.736 16.584A15.119 15.119 0 0 1 14.6 2.4h.006a14.2 14.2 0 0 0 .024 28.381h-.006a15.151 15.151 0 0 1-9.888-14.197z" data-name="Path 47714" transform="translate(-.969 -2.391)"/>
                                    </g>
                                    <g id="prefix__Group_22474" data-name="Group 22474" transform="translate(5.578 9.794)">
                                        <path id="prefix__Path_47715" d="M19.218 22.837c.938-2.326-.818-2.956-1.968-2.956h-3.8a.545.545 0 0 1 .206.685l-2.217 7.081a1.146 1.146 0 0 1-.6.624h3.076a.487.487 0 0 1-.327-.6l.806-2.562c.006-.009 3.706.497 4.824-2.272zm-2.992-2.308c.4 0 1.52.055.8 2.163-.757 2.217-2.428 1.757-2.428 1.757l1.23-3.925c-.002.005.386.005.398.005z" class="prefix__cls-6" data-name="Path 47715" transform="translate(-10.836 -19.782)"/>
                                        <path id="prefix__Path_47716" d="M26.45 29.722h2.071a5.628 5.628 0 0 1-2.029-1.284 2.525 2.525 0 0 0 .776-1.66H26.2a.45.45 0 0 1 .206.37 1.342 1.342 0 0 1-.273.781 4.17 4.17 0 0 1-.769-1.781 6.644 6.644 0 0 0 1.484-.848 1.388 1.388 0 0 0 .557-1v-.031a.933.933 0 0 0-.279-.666 1.459 1.459 0 0 0-1.314-.339 2.053 2.053 0 0 0-.945.46 2.817 2.817 0 0 0-.708 1.987c0 .109.006.188.006.236-.037.012-.1.036-.1.036a3.325 3.325 0 0 0-2.114 1.5 1.969 1.969 0 0 0-.133.721 1.609 1.609 0 0 0 .236.86 1.791 1.791 0 0 0 1.665.769 3.91 3.91 0 0 0 1.963-.751 3.72 3.72 0 0 0 .768.64zm0-5.6a2.635 2.635 0 0 1-1.193 1.448 2.31 2.31 0 0 1 .3-1.466c.212-.321.484-.466.715-.388.172.063.196.232.178.408zm-1.217 4.507a2.809 2.809 0 0 1-1.054.363.933.933 0 0 1-1.109-.957c0-.715.775-1.236 1.2-1.418a6.124 6.124 0 0 0 .963 2.014z" class="prefix__cls-6" data-name="Path 47716" transform="translate(-15.61 -21.239)"/>
                                        <path id="prefix__Path_47717" d="M37.215 20.465a2.8 2.8 0 0 1 2.337.733l.352-1.12c-.485-.145-4.016-1.339-6.511 1.508-1.532 1.751-1.907 5.343.037 6.306a5.431 5.431 0 0 0 4.548-.243l.951-3.029a1.086 1.086 0 0 1 .744-.757h-3.306a.572.572 0 0 1 .406.715l-.951 3.029c-.127.024-2.786.691-1.3-3.962.331-.999 1.228-2.829 2.693-3.18z" class="prefix__cls-6" data-name="Path 47717" transform="translate(-20.082 -19.706)"/>
                                    </g>
                                </g>
                                <g id="prefix__Group_22476" data-name="Group 22476" transform="translate(60.519 13.135)">
                                    <path id="prefix__Path_47718" d="M112.484 29.333h-3.641a1.432 1.432 0 0 0 .52.972 1.665 1.665 0 0 0 1.107.365 1.636 1.636 0 0 0 1.295-.557l.448.539a2.023 2.023 0 0 1-.756.557 2.538 2.538 0 0 1-1.01.192 2.633 2.633 0 0 1-1.264-.3 2.08 2.08 0 0 1-.852-.836 2.451 2.451 0 0 1-.3-1.214 2.5 2.5 0 0 1 .29-1.207 2.114 2.114 0 0 1 .8-.836 2.249 2.249 0 0 1 1.155-.3 2.225 2.225 0 0 1 1.149.3 2.031 2.031 0 0 1 .786.836 2.622 2.622 0 0 1 .284 1.232 1.32 1.32 0 0 1-.011.257zm-3.184-1.554a1.481 1.481 0 0 0-.46.954h2.879a1.466 1.466 0 0 0-.46-.947 1.36 1.36 0 0 0-.98-.365 1.376 1.376 0 0 0-.979.358z" class="prefix__cls-4" data-name="Path 47718" transform="translate(-108.027 -24.912)"/>
                                    <path id="prefix__Path_47719" d="M121.153 26.791l-1.966 4.594h-.829l-1.966-4.594h.847l1.542 3.684 1.572-3.684z" class="prefix__cls-4" data-name="Path 47719" transform="translate(-111.664 -24.946)"/>
                                    <path id="prefix__Path_47720" d="M129.645 29.333H126a1.432 1.432 0 0 0 .52.972 1.665 1.665 0 0 0 1.107.365 1.635 1.635 0 0 0 1.295-.557l.448.539a2.023 2.023 0 0 1-.756.557 2.537 2.537 0 0 1-1.01.192 2.634 2.634 0 0 1-1.265-.3 2.08 2.08 0 0 1-.852-.836 2.451 2.451 0 0 1-.3-1.214 2.5 2.5 0 0 1 .291-1.207 2.109 2.109 0 0 1 .8-.836 2.249 2.249 0 0 1 1.155-.3 2.225 2.225 0 0 1 1.149.3 2.031 2.031 0 0 1 .786.836 2.622 2.622 0 0 1 .284 1.232 1.32 1.32 0 0 1-.007.257zm-3.175-1.554a1.481 1.481 0 0 0-.46.954h2.879a1.466 1.466 0 0 0-.46-.947 1.507 1.507 0 0 0-1.96-.006z" class="prefix__cls-4" data-name="Path 47720" transform="translate(-115.487 -24.912)"/>
                                    <path id="prefix__Path_47721" d="M136.514 26.914a2.266 2.266 0 0 1 1.01-.211v.8a1.554 1.554 0 0 0-.188-.006 1.344 1.344 0 0 0-1.034.4 1.6 1.6 0 0 0-.375 1.145v2.291h-.81v-4.586h.78v.774a1.316 1.316 0 0 1 .617-.607z" class="prefix__cls-4" data-name="Path 47721" transform="translate(-119.803 -24.908)"/>
                                    <path id="prefix__Path_47722" d="M144.7 26.786l-2.177 5.053a2.321 2.321 0 0 1-.672.99 1.5 1.5 0 0 1-.925.285 1.9 1.9 0 0 1-.641-.111 1.4 1.4 0 0 1-.514-.316l.344-.625a1.133 1.133 0 0 0 .8.34.775.775 0 0 0 .5-.161 1.317 1.317 0 0 0 .357-.551l.145-.322-1.984-4.588h.847l1.566 3.678 1.554-3.678h.8z" class="prefix__cls-4" data-name="Path 47722" transform="translate(-121.826 -24.941)"/>
                                    <path id="prefix__Path_47723" d="M153.531 23.533v6.433h-.78v-.73a1.84 1.84 0 0 1-.683.582 2.127 2.127 0 0 1-.914.2 2.293 2.293 0 0 1-1.167-.3 2.111 2.111 0 0 1-.81-.83 2.5 2.5 0 0 1-.291-1.226 2.479 2.479 0 0 1 .291-1.219 2.09 2.09 0 0 1 .81-.824 2.293 2.293 0 0 1 1.167-.3 2.124 2.124 0 0 1 .889.186 1.737 1.737 0 0 1 .677.551v-2.529h.811zm-1.542 5.554a1.478 1.478 0 0 0 .544-.57 1.812 1.812 0 0 0 .194-.842 1.793 1.793 0 0 0-.194-.842 1.356 1.356 0 0 0-.544-.57 1.6 1.6 0 0 0-1.543 0 1.4 1.4 0 0 0-.544.57 1.876 1.876 0 0 0 0 1.684 1.441 1.441 0 0 0 .544.57 1.56 1.56 0 0 0 1.543 0z" class="prefix__cls-4" data-name="Path 47723" transform="translate(-125.789 -23.527)"/>
                                    <path id="prefix__Path_47724" d="M162.626 27.174a1.821 1.821 0 0 1 .5 1.393v2.774h-.768v-.607a1.242 1.242 0 0 1-.581.489 2.208 2.208 0 0 1-.895.167 1.825 1.825 0 0 1-1.2-.371 1.3 1.3 0 0 1-.024-1.951 2.084 2.084 0 0 1 1.373-.365h1.288v-.167a1.087 1.087 0 0 0-.3-.823 1.259 1.259 0 0 0-.895-.285 2.241 2.241 0 0 0-.78.136 1.951 1.951 0 0 0-.641.359l-.339-.625a2.48 2.48 0 0 1 .829-.44 3.469 3.469 0 0 1 1.007-.158 2.048 2.048 0 0 1 1.426.474zm-.811 3.368a1.223 1.223 0 0 0 .49-.6V29.3h-1.252c-.69 0-1.034.235-1.034.712a.643.643 0 0 0 .26.545 1.2 1.2 0 0 0 .726.2 1.431 1.431 0 0 0 .811-.215z" class="prefix__cls-4" data-name="Path 47724" transform="translate(-130.281 -24.908)"/>
                                    <path id="prefix__Path_47725" d="M171.864 26.786l-2.178 5.053a2.311 2.311 0 0 1-.672.99 1.5 1.5 0 0 1-.925.285 1.9 1.9 0 0 1-.642-.111 1.407 1.407 0 0 1-.514-.316l.345-.625a1.132 1.132 0 0 0 .8.34.772.772 0 0 0 .5-.161 1.317 1.317 0 0 0 .357-.551l.145-.322-1.98-4.588h.847l1.566 3.678 1.548-3.678h.8z" class="prefix__cls-4" data-name="Path 47725" transform="translate(-133.635 -24.941)"/>
                                </g>
                                <g id="prefix__Group_22477" data-name="Group 22477" transform="translate(27.61)">
                                    <path id="prefix__Path_47726" d="M70.121 28.045a2.066 2.066 0 0 0 1.611-.11 6.075 6.075 0 0 0 2.733-3.488 7.243 7.243 0 0 0 .427-3.386 4.586 4.586 0 0 0-.158-.7.583.583 0 0 0 .183-.115 1.447 1.447 0 0 1 1.092-.516 1.607 1.607 0 0 1 .989.643c.006.006.006.012.012.012a7.72 7.72 0 0 0-1.092 2.063 7.243 7.243 0 0 0-.427 3.386 2.55 2.55 0 0 0 1.452 2.2 1.821 1.821 0 0 0 .647.115 2.28 2.28 0 0 0 .964-.224 6.075 6.075 0 0 0 2.733-3.489 7.236 7.236 0 0 0 .427-3.386 2.552 2.552 0 0 0-1.452-2.2 2.066 2.066 0 0 0-1.611.11 3.532 3.532 0 0 0-.9.613 2.583 2.583 0 0 0-1.623-.916 2.406 2.406 0 0 0-1.9.752 1.88 1.88 0 0 0-.781-.552 2.065 2.065 0 0 0-1.611.109 6.074 6.074 0 0 0-2.736 3.491 7.243 7.243 0 0 0-.427 3.386 2.552 2.552 0 0 0 1.448 2.202zm8.993-8.1a1.221 1.221 0 0 1 .506-.127.8.8 0 0 1 .269.049c.793.3 1.147 2.105.384 4.217a5.1 5.1 0 0 1-2.166 2.87 1 1 0 0 1-.775.079c-.793-.3-1.147-2.105-.384-4.217a5.1 5.1 0 0 1 2.166-2.871zm-8.993 2.87a5.1 5.1 0 0 1 2.166-2.87 1.223 1.223 0 0 1 .507-.127.8.8 0 0 1 .268.049c.794.3 1.147 2.105.384 4.217a5.1 5.1 0 0 1-2.166 2.87 1 1 0 0 1-.775.079c-.793-.299-1.147-2.1-.384-4.218z" class="prefix__cls-4" data-name="Path 47726" transform="translate(-57.986 -8.272)"/>
                                    <path id="prefix__Path_47727" d="M73.85 29.646a.56.56 0 0 0-.726.267 3.669 3.669 0 0 1-2.424 1.711 13.867 13.867 0 0 1-3.972.406 31.916 31.916 0 0 1-4.167-.364q-.687-.1-1.373-.236c-.5-.1-.994-.188-1.5-.267s-.982-.109-1.476-.176c.427-2.591.817-4.957 1.135-6.862a7.556 7.556 0 0 0 .348-2.087c.269-1.6.427-2.554.433-2.572a.544.544 0 0 0-1.073-.182c0 .006-.018.091-.043.254a1.924 1.924 0 0 0-.824-.607 2.064 2.064 0 0 0-1.611.109 6.074 6.074 0 0 0-2.733 3.489 7.236 7.236 0 0 0-.427 3.386 2.552 2.552 0 0 0 1.452 2.2 2.066 2.066 0 0 0 1.611-.11 4.087 4.087 0 0 0 1.287-.995c-.2 1.226-.421 2.555-.647 3.943a9.489 9.489 0 0 0-3.783.741 5.986 5.986 0 0 0-3.123 2.979c-.672 1.517-.476 3.136.464 3.859a2.875 2.875 0 0 0 1.763.582 3.626 3.626 0 0 0 1.086-.176c1.885-.607 3.465-2.657 4.344-5.625a.544.544 0 0 0-1.043-.309c-1.1 3.719-2.91 4.666-3.637 4.9a2 2 0 0 1-1.855-.23A2.285 2.285 0 0 1 51.2 35.1a4.9 4.9 0 0 1 2.568-2.427 10.127 10.127 0 0 1 5.57-.473c.69.1 1.373.261 2.062.382 1.025.176 2.056.315 3.093.406a25.376 25.376 0 0 0 3.721.085 11.445 11.445 0 0 0 3.465-.661 4.433 4.433 0 0 0 2.324-1.832 2.466 2.466 0 0 0 .116-.224.556.556 0 0 0-.269-.71zm-17.833-2.621a1 1 0 0 1-.775.079c-.793-.3-1.147-2.105-.384-4.217a5.1 5.1 0 0 1 2.166-2.87 1.223 1.223 0 0 1 .506-.127.8.8 0 0 1 .268.049c.488.182.812.934.806 1.984-.1.577-.207 1.232-.323 1.954-.031.091-.061.188-.1.279a5.055 5.055 0 0 1-2.164 2.869z" class="prefix__cls-4" data-name="Path 47727" transform="translate(-49.812 -8.344)"/>
                                    <path id="prefix__Path_47728" d="M98.275.917a3.245 3.245 0 0 0-3.2-.37 5.618 5.618 0 0 0-2.587 2.306 12.838 12.838 0 0 0-1.629 4.465 15.1 15.1 0 0 1-2.306-.231 46.231 46.231 0 0 0-6.7-.813c-4.8-.2-7.681.679-8.572 2.609a.534.534 0 0 0 .269.716.54.54 0 0 0 .72-.267c.36-.782 1.275-1.341 2.721-1.674a18.816 18.816 0 0 1 4.809-.31 46.554 46.554 0 0 1 6.546.795l.018.006a16.837 16.837 0 0 0 2.319.243c-.189 1.165-.36 2.19-.507 3.088a1.858 1.858 0 0 0-.824-.6 2.064 2.064 0 0 0-1.611.109 6.07 6.07 0 0 0-2.733 3.489 7.237 7.237 0 0 0-.427 3.386 2.551 2.551 0 0 0 1.452 2.2 2.064 2.064 0 0 0 1.611-.11 4.48 4.48 0 0 0 1.531-1.28 2.026 2.026 0 0 0 .457 1.286 1.023 1.023 0 0 0 .732.3 1.051 1.051 0 0 0 .232-.024.54.54 0 1 0-.2-1.062h-.006a2.093 2.093 0 0 1-.135-1.1 8.529 8.529 0 0 1 .12-1.074v-.012c0-.006.055-.322.171-1.037a7.714 7.714 0 0 0 .311-1.911c.219-1.341.518-3.192.927-5.661a9.96 9.96 0 0 0 3.551-.819 6.487 6.487 0 0 0 3.331-3.173c.634-1.413.476-2.809-.391-3.47zm-8.492 13.008c-.122.759-.219 1.347-.293 1.79-.037.128-.079.261-.128.395a5.1 5.1 0 0 1-2.162 2.869 1 1 0 0 1-.775.079c-.793-.3-1.147-2.105-.384-4.217a5.1 5.1 0 0 1 2.166-2.87 1.223 1.223 0 0 1 .507-.127.805.805 0 0 1 .269.049c.489.181.817.958.8 2.032zm7.895-9.975a5.32 5.32 0 0 1-2.788 2.628 8.714 8.714 0 0 1-2.911.709c.379-1.82 1.318-4.878 3.5-5.733a2.532 2.532 0 0 1 .921-.182 1.972 1.972 0 0 1 1.214.4c.386.292.527 1.135.064 2.178z" class="prefix__cls-4" data-name="Path 47728" transform="translate(-59.991 -.292)"/>
                                </g>
                            </g>
                        </g>
                    </g>
                </g>
            </g>
        </g>
    </g>
</svg>
