<svg xmlns="http://www.w3.org/2000/svg" width="33.44" height="37.961" viewBox="0 0 33.44 37.961">
    <g id="prefix__Group_20947" data-name="Group 20947" transform="translate(0 -3958)">
        <path id="prefix__Path_46228" d="M6.521 29S0 37.038 0 41.147s2.947 7.5 6.521 7.5 6.521-3.394 6.521-7.5S6.521 29 6.521 29zm1.5 18.329a18.809 18.809 0 0 0 3.762-5.922s.417 3.693-3.762 5.922z" data-name="Path 46228" transform="translate(0 3941.123)" style="fill:#8dc8e8"/>
        <path id="prefix__Path_46229" d="M41.822 8.46c-2.5-3.875-5-7.141-6.037-8.46-1.035 1.319-3.535 4.585-6.038 8.46a66.5 66.5 0 0 0-4.162 7.3c1.767 2.713 3.588 6.094 3.588 8.515a9.073 9.073 0 0 1-3.649 7.422 14.5 14.5 0 0 0 1.466 2.029 11.683 11.683 0 0 0 8.794 4.238 11.682 11.682 0 0 0 8.792-4.238 15.644 15.644 0 0 0 3.717-10.253c.029-3.839-3.193-9.973-6.471-15.013zM39.788 35.1a31.485 31.485 0 0 0 6.3-9.913s.698 6.176-6.3 9.913z" data-name="Path 46229" transform="translate(-14.854 3958)" style="fill:#002159"/>
    </g>
</svg>
