<svg xmlns="http://www.w3.org/2000/svg" width="34.073" height="34" viewBox="0 0 34.073 34">
    <defs>
        <style>
            .prefix__cls-5{fill:#13294b}.prefix__cls-4{fill:#d3def2}
        </style>
    </defs>
    <g id="prefix__Tide" transform="translate(.5 .5)" style="opacity:.5">
        <text id="prefix___" transform="rotate(-90.564 13.678 7.12)" style="fill:#004a99;font-size:1px;font-family:MyriadPro-Regular,Myriad Pro">
            <tspan x="0" y="0"></tspan>
        </text>
        <g id="prefix__Group_21057" data-name="Group 21057">
            <path id="prefix__Path_46302" d="M40.394 25.356a16.536 16.536 0 1 1-16.537-16.5 16.519 16.519 0 0 1 16.537 16.5" data-name="Path 46302" transform="translate(-7.321 -8.852)" style="stroke:#d3def2;fill:#13294b"/>
            <path id="prefix__Path_46303" d="M40.556 28.771a13.289 13.289 0 1 1-13.291-13.266 13.271 13.271 0 0 1 13.291 13.266" class="prefix__cls-4" data-name="Path 46303" transform="translate(-10.73 -12.267)"/>
            <path id="prefix__Path_46304" d="M40.738 32.639a9.612 9.612 0 1 1-9.613-9.6 9.6 9.6 0 0 1 9.613 9.6" class="prefix__cls-5" data-name="Path 46304" transform="translate(-14.59 -16.134)"/>
            <path id="prefix__Path_46305" d="M40.026 29.025a2.676 2.676 0 0 0-2.283-.865 8.836 8.836 0 0 0-1.081.074 5.891 5.891 0 0 0-3.686 1.409l1.74-5.518-2.6.42a2.95 2.95 0 0 0-2.563 2.383l-.81 2.61-1.925.317a4.111 4.111 0 0 0-1.9.826 1.986 1.986 0 0 0 .046-.824 2.008 2.008 0 0 0-.67-1.206l.254-.044a3.532 3.532 0 0 0 2.7-2.237l.779-2.455-13.693 2.226a1.487 1.487 0 0 0-1.322 1.136l-1.066 3.4 5.106-.845-4.483 14.673 2.753-.413a3.347 3.347 0 0 0 2.456-2.147l.16-.52 3.741-.653.578-1.825a1.876 1.876 0 0 0 .438.717 2.374 2.374 0 0 0 1.731.621 4.43 4.43 0 0 0 .764-.067l4.692-.751.531-1.692a1.8 1.8 0 0 0 .237.431 2.7 2.7 0 0 0 2.306.864 10.385 10.385 0 0 0 1.288-.092c3.045-.388 3.94-1.553 4.612-3.71l.263-.84.052-.008 1.033-3.266a2.308 2.308 0 0 0-.181-2.13" class="prefix__cls-5" data-name="Path 46305" transform="translate(-9.69 -16.582)"/>
            <path id="prefix__Path_46306" d="M43.636 26.358c-.812.128-1.525.405-2.009 1.9l-.936 3.021-2.368.388a2.951 2.951 0 0 0-2.191 1.469 24.026 24.026 0 0 0-1.9 6.073c-.019 1.457 1.187 1.643 2.262 1.457l4.269-.687 4.37-13.867-1.5.244M38.5 38.228a2.977 2.977 0 0 1-1.022.172c-.128-.1-.221-.092-.192-.4l1.226-3.776a.738.738 0 0 1 .7-.519l.751-.109z" class="prefix__cls-4" data-name="Path 46306" transform="translate(-21.103 -17.711)"/>
            <path id="prefix__Path_46307" d="M56.7 34.124c-1.841.235-3.036.564-3.852 1.956a20.488 20.488 0 0 0-1.777 4.977c-.677 2.364.7 2.738 3.038 2.442 2.759-.354 3.442-1.317 4.038-3.232l.072-.224-2.8.457v.03a.972.972 0 0 1-.974.764c-.7.09-.627-.274-.476-.757l.263-.833 4.363-.693.9-2.855c.363-1.173.189-2.411-2.8-2.031m-.131 2.775l-.225.725-1.547.233.244-.761a.945.945 0 0 1 .947-.715c.625-.079.7.143.581.518" class="prefix__cls-4" data-name="Path 46307" transform="translate(-29.637 -21.786)"/>
            <path id="prefix__Path_46308" d="M22.215 29.379l-4.054 13.277a2.647 2.647 0 0 1-1.91 1.666l-1.657.25 4.491-14.7-5.1.842.727-2.325a.813.813 0 0 1 .774-.661l12.575-2.046-.437 1.382a2.868 2.868 0 0 1-2.14 1.765z" class="prefix__cls-4" data-name="Path 46308" transform="translate(-10.735 -17.491)"/>
            <path id="prefix__Path_46309" d="M34.1 35.3a1.519 1.519 0 1 0-1.284 1.546A1.422 1.422 0 0 0 34.1 35.3" class="prefix__cls-4" data-name="Path 46309" transform="translate(-19.501 -21.863)"/>
            <path id="prefix__Path_46310" d="M30.3 40.382l-2.6 8.235-2.96.515 2.6-8.224z" class="prefix__cls-4" data-name="Path 46310" transform="translate(-16.239 -25.034)"/>
        </g>
    </g>
</svg>
