<svg xmlns="http://www.w3.org/2000/svg" width="41" height="41" viewBox="0 0 41 41">
    <g id="prefix__Twitter" transform="translate(.5 .5)">
        <circle id="prefix__Oval" cx="20" cy="20" r="20" style="fill:none;stroke:#8dc8e8"/>
        <path id="prefix__Twitter-2" d="M16.41 1.578a6.753 6.753 0 0 1-1.934.531A3.377 3.377 0 0 0 15.957.247a6.728 6.728 0 0 1-2.138.816 3.369 3.369 0 0 0-5.824 2.3 3.4 3.4 0 0 0 .088.768A9.557 9.557 0 0 1 1.143.616 3.37 3.37 0 0 0 2.185 5.11 3.339 3.339 0 0 1 .66 4.689v.043a3.367 3.367 0 0 0 2.7 3.3 3.361 3.361 0 0 1-.887.118 3.312 3.312 0 0 1-.633-.061 3.372 3.372 0 0 0 3.145 2.338A6.764 6.764 0 0 1 .8 11.868a6.786 6.786 0 0 1-.8-.047 9.527 9.527 0 0 0 5.161 1.512 9.513 9.513 0 0 0 9.579-9.577c0-.147 0-.29-.01-.435a6.843 6.843 0 0 0 1.68-1.742z" data-name="Twitter" transform="translate(11.795 13.333)" style="fill:#8dc8e8"/>
    </g>
</svg>
