<svg xmlns="http://www.w3.org/2000/svg" width="41" height="41" viewBox="0 0 41 41">
    <g id="prefix__Youtube" transform="translate(.5 .5)">
        <circle id="prefix__Oval" cx="20" cy="20" r="20" style="fill:none;stroke:#8dc8e8"/>
        <path id="prefix__Youtube-2" d="M9.231 14.359c-.048 0-4.824-.035-6.27-.2-.078-.018-.173-.032-.282-.048a2.588 2.588 0 0 1-1.755-.833 4.91 4.91 0 0 1-.732-2.023A32.687 32.687 0 0 1 0 7.963V6.429C0 4.786.189 3.117.191 3.1a4.464 4.464 0 0 1 .732-2.023A2.515 2.515 0 0 1 2.714.233h.052C5.317.035 9.192 0 9.231 0s3.914.035 6.462.228l.088.007a2.35 2.35 0 0 1 1.759.841 4.91 4.91 0 0 1 .73 2.024c0 .017.191 1.685.191 3.329v1.534c0 1.61-.189 3.279-.191 3.3a4.911 4.911 0 0 1-.732 2.023 2.515 2.515 0 0 1-1.791.843h-.052c-2.551.227-6.425.23-6.464.23zM7 3.883v7.082l6.05-3.459z" data-name="Youtube" transform="translate(10.769 12.821)" style="fill:#8dc8e8"/>
    </g>
</svg>
